<?xml version="1.0" encoding="iso-8859-1"?>
<!-- Generator: Adobe Illustrator 19.0.0, SVG Export Plug-In . SVG Version: 6.00 Build 0)  -->
<svg version="1.1" id="Layer_1" xmlns="http://www.w3.org/2000/svg" xmlns:xlink="http://www.w3.org/1999/xlink" x="0px" y="0px"
	 viewBox="0 0 512 512" style="enable-background:new 0 0 512 512;" xml:space="preserve">
<g>
	<g>
		<path d="M388.588,358.942c-1.194-4.646-5.923-7.447-10.576-6.254c-31.155,8-68.243,12.056-110.234,12.056
			c-55.25,0-106.384-7.115-147.87-20.574c-4.559-1.479-9.465,1.017-10.944,5.582c-1.48,4.564,1.018,9.464,5.582,10.944
			c43.197,14.014,96.182,21.422,153.232,21.422c43.448,0,81.99-4.24,114.556-12.602
			C386.981,368.323,389.782,363.588,388.588,358.942z"/>
	</g>
</g>
<g>
	<g>
		<path d="M406.758,72.239c-4.624-1.265-9.406,1.457-10.673,6.086c-1.267,4.628,1.457,9.406,6.085,10.673
			c23.117,6.328,45.993,22.883,62.764,45.421c13.545,18.205,29.691,49.097,29.691,92.895c0,52.329-27.269,90.508-81.048,113.473
			c-4.413,1.885-6.463,6.99-4.578,11.402c1.41,3.3,4.618,5.279,7.994,5.279c1.138,0,2.294-0.225,3.407-0.7
			c33.91-14.481,58.765-35.107,73.963-60.99c-2.34,38.885-20.798,69.608-54.974,91.404c-38.965,24.85-96.702,37.45-171.612,37.45
			c-72.902,0-138.322-12.492-184.211-35.174c-42.683-21.098-66.19-49.631-66.19-80.341v-9.86
			c11.397,15.49,28.218,29.548,49.91,41.427c1.325,0.725,2.755,1.069,4.165,1.069c3.071,0,6.049-1.633,7.628-4.516
			c2.304-4.208,0.761-9.488-3.447-11.792c-37.568-20.573-58.256-47.639-58.256-76.213c0-20.781,6.042-35.641,17.957-44.165
			c17.98-12.862,51.242-12.408,91.262,1.246c63.533,21.674,98.066-21.212,128.535-59.051l1.747-2.168
			c25.712-31.904,64.589-52.963,106.661-57.779c4.767-0.546,8.188-4.852,7.643-9.619s-4.828-8.187-9.62-7.643
			c-46.57,5.332-89.657,28.709-118.213,64.139l-1.751,2.174c-14.533,18.048-29.561,36.711-47.065,47.763
			c-18.946,11.961-38.751,13.783-62.326,5.741c-26.675-9.101-76.042-21.068-106.982,1.067C8.486,202.908,0,222.521,0,249.231v59.886
			c0,37.671,26.944,71.735,75.867,95.916c48.935,24.188,115.297,36.973,191.911,36.973c78.272,0,139.154-13.517,180.955-40.175
			C490.122,375.433,512,335.794,512,287.199v-59.886C512,144.418,459.057,86.555,406.758,72.239z"/>
	</g>
</g>
<g>
	<g>
		<path d="M447.8,131.782c-18.961-20.954-43.945-33.97-65.198-33.97c-45.547,0-89.175,20.392-116.709,54.553l-1.741,2.163
			c-24.823,30.825-55.715,69.188-104.894,69.188c-11.629,0-23.877-2.167-36.404-6.442c-19.194-6.549-37.105-10.012-51.795-10.012
			c-13.917,0-24.365,2.982-31.055,8.863c-7.329,6.442-11.045,17.58-11.045,33.106c0,20.263,12.764,39.872,36.91,56.71
			c23.668,16.502,57.32,29.491,97.321,37.561c0.58,0.117,1.158,0.173,1.727,0.173c4.051,0,7.675-2.847,8.507-6.971
			c0.949-4.704-2.094-9.285-6.797-10.234c-7.504-1.514-14.627-3.172-21.388-4.949l-11.886-32.204
			c-1.662-4.501-6.654-6.804-11.159-5.142c-4.501,1.661-6.804,6.657-5.142,11.159l7.365,19.956
			c-53.603-18.186-78.083-44.67-78.083-66.058c0-13.518,3.22-18.367,5.141-20.055c3.279-2.883,10.417-4.537,19.582-4.537
			c6.22,0,13.194,0.747,20.712,2.19l14.488,39.255c1.295,3.51,4.616,5.682,8.151,5.682c0.999,0,2.014-0.174,3.007-0.54
			c4.501-1.661,6.804-6.657,5.142-11.159l-10.329-27.988c1.659,0.522,3.327,1.063,5.015,1.639
			c14.337,4.892,28.473,7.372,42.015,7.372c15.188,0,28.708-2.948,40.902-7.878l37.594,101.828
			c-10.607-0.531-20.987-1.338-31.05-2.433c-4.779-0.518-9.057,2.928-9.576,7.697c-0.519,4.77,2.927,9.057,7.698,9.576
			c20.008,2.175,41.189,3.279,62.952,3.279c71.644,0,128.832-12.322,165.383-35.634c4.045-2.58,5.234-7.951,2.653-11.996
			c-2.58-4.046-7.949-5.235-11.996-2.654c-16.733,10.672-38.434,18.845-64.385,24.379l-18.094-49.029
			c-1.662-4.501-6.655-6.804-11.159-5.142c-4.501,1.661-6.804,6.657-5.142,11.159l17.055,46.214
			c-22.259,3.521-47.147,5.326-74.316,5.326c-3.779,0-7.531-0.046-11.269-0.115l-40.693-110.223
			c25.825-15.285,45.116-39.219,61.872-60.025l1.738-2.157c0.219-0.272,0.448-0.536,0.671-0.806l34.427,93.288
			c1.295,3.51,4.616,5.682,8.151,5.682c0.998,0,2.014-0.174,3.007-0.54c4.501-1.661,6.804-6.657,5.142-11.159l-37.338-101.175
			c20.539-18.233,47.182-29.819,75.446-32.668l13.95,37.794c1.295,3.509,4.617,5.682,8.151,5.682c0.999,0,2.016-0.174,3.007-0.54
			c4.503-1.662,6.804-6.658,5.142-11.159l-11.869-32.154c15.374,1.853,33.536,12.385,47.603,27.93
			c19.829,21.913,30.75,51.699,30.75,83.872c0,16.445-3.255,30.446-9.95,42.803c-2.284,4.218-0.717,9.491,3.502,11.776
			c4.22,2.285,9.492,0.719,11.778-3.499c7.994-14.755,12.047-31.941,12.047-51.08C483.042,190.821,470.526,156.894,447.8,131.782z"
			/>
	</g>
</g>
<g>
	<g>
		<path d="M444.348,270.027l-35.637-96.548c-1.662-4.5-6.658-6.803-11.159-5.142c-4.503,1.662-6.804,6.657-5.142,11.159
			l35.637,96.548c1.295,3.509,4.617,5.682,8.151,5.682c0.999,0,2.014-0.174,3.007-0.54
			C443.709,279.523,446.01,274.528,444.348,270.027z"/>
	</g>
</g>
<g>
</g>
<g>
</g>
<g>
</g>
<g>
</g>
<g>
</g>
<g>
</g>
<g>
</g>
<g>
</g>
<g>
</g>
<g>
</g>
<g>
</g>
<g>
</g>
<g>
</g>
<g>
</g>
<g>
</g>
</svg>
