<svg height="512" viewBox="0 0 64 64" width="512" xmlns="http://www.w3.org/2000/svg"><g id="outline"><path d="m8.069 57.344c.009.022.03.091.036.1l2 4a1 1 0 0 0 .895.556h28a1 1 0 0 0 .9-.553l2-4c.006-.012.027-.081.036-.1a2.13 2.13 0 0 0 .064-.347v-42a2.027 2.027 0 0 0 -.072-.358 1.849 1.849 0 0 0 -.1-.2l-3.2-4.8a3.993 3.993 0 1 0 -4.707-6.18 6 6 0 0 0 -9.921 4.538h-11a1 1 0 0 0 -.832.445l-4 6a1.849 1.849 0 0 0 -.1.2 2.027 2.027 0 0 0 -.068.355v42a2.13 2.13 0 0 0 .069.344zm30.313 2.656h-26.764l-1-2h28.764zm-28.382-13v-14h30v14zm0-31h30v5.382l-15 7.5-15-7.5zm20-12a4 4 0 0 1 3.3 1.747 1 1 0 0 0 1.787-.291 1.994 1.994 0 1 1 1.913 2.544h-11a4 4 0 0 1 4-4zm-16.465 6h22.93l2.666 4h-28.262zm-3.535 13.618 14.553 7.282a1 1 0 0 0 .894 0l14.553-7.282v7.382h-2v-3h-2v3h-26zm26 25.382v3h-6v2h8v-5h2v7h-30v-7z"/><path d="m49 14a3 3 0 1 0 3-3 3 3 0 0 0 -3 3zm3-1a1 1 0 1 1 -1 1 1 1 0 0 1 1-1z"/><path d="m47 10a4 4 0 1 0 -4-4 4 4 0 0 0 4 4zm0-6a2 2 0 1 1 -2 2 2 2 0 0 1 2-2z"/><path d="m30 23a5 5 0 1 0 -5 5 5.006 5.006 0 0 0 5-5zm-8 0a3 3 0 1 1 3 3 3 3 0 0 1 -3-3z"/><path d="m26 52h2v2h-2z"/><path d="m15 35h-3v10h3a2.987 2.987 0 0 0 2.22-5 2.987 2.987 0 0 0 -2.22-5zm-1 2h1a1 1 0 0 1 0 2h-1zm1 6h-1v-2h1a1 1 0 0 1 0 2z"/><path d="m20 45h4v-2h-2v-2h2v-2h-2v-2h2v-2h-4z"/><path d="m26 45h4v-2h-2v-2h2v-2h-2v-2h2v-2h-4z"/><path d="m38 38a3 3 0 0 0 -3-3h-3v10h2v-2l1.5 2h2.5v-2h-1.5l-1.5-2a3 3 0 0 0 3-3zm-3 1h-1v-2h1a1 1 0 0 1 0 2z"/><path d="m12 18h2v2h-2z"/><path d="m16 18h2v2h-2z"/></g></svg>