<svg width="1016" height="486" viewBox="0 0 1016 486" fill="none" xmlns="http://www.w3.org/2000/svg">
<path d="M200.6 486C311.388 486 401.2 479.986 401.2 472.568C401.2 465.149 311.388 459.135 200.6 459.135C89.8116 459.135 0 465.149 0 472.568C0 479.986 89.8116 486 200.6 486Z" fill="#3F3D56"/>
<path d="M203.962 325.931H197.238V329.849H203.962V325.931Z" fill="#3F3D56"/>
<path d="M217.41 325.931H210.686V329.849H217.41V325.931Z" fill="#3F3D56"/>
<path d="M230.858 325.931H224.134V329.849H230.858V325.931Z" fill="#3F3D56"/>
<path d="M244.306 325.931H237.582V329.849H244.306V325.931Z" fill="#3F3D56"/>
<path d="M257.754 325.931H251.03V329.849H257.754V325.931Z" fill="#3F3D56"/>
<path d="M271.202 325.931H264.478V329.849H271.202V325.931Z" fill="#3F3D56"/>
<path d="M284.65 325.931H277.926V329.849H284.65V325.931Z" fill="#3F3D56"/>
<path d="M298.098 325.931H291.374V329.849H298.098V325.931Z" fill="#3F3D56"/>
<path d="M311.546 325.931H304.822V329.849H311.546V325.931Z" fill="#3F3D56"/>
<path d="M324.994 325.931H318.27V329.849H324.994V325.931Z" fill="#3F3D56"/>
<path d="M338.442 325.931H331.718V329.849H338.442V325.931Z" fill="#3F3D56"/>
<path d="M353.852 328.449C353.852 349.824 345.35 370.324 330.219 385.438C315.087 400.553 294.563 409.044 273.163 409.044C251.763 409.044 231.24 400.553 216.108 385.438C200.976 370.324 192.475 349.824 192.475 328.449H353.852Z" fill="#3F3D56"/>
<path d="M349.951 328.964L298.625 176.149C308.67 172.775 319.283 171.413 329.856 172.139C340.429 172.866 350.755 175.667 360.243 180.382C369.731 185.098 378.196 191.636 385.152 199.622C392.109 207.608 397.421 216.885 400.785 226.923C401.328 228.541 401.822 230.169 402.259 231.798C407.542 251.601 405.074 272.671 395.357 290.721C385.64 308.771 369.404 322.446 349.951 328.964Z" fill="#3F3D56"/>
<path d="M351.89 341.042C357.461 341.042 361.976 336.532 361.976 330.968C361.976 325.404 357.461 320.894 351.89 320.894C346.32 320.894 341.804 325.404 341.804 330.968C341.804 336.532 346.32 341.042 351.89 341.042Z" fill="#3F3D56"/>
<path d="M249.349 349.438C248.606 349.438 247.894 349.732 247.368 350.257C246.843 350.782 246.548 351.494 246.548 352.236C246.548 352.978 246.843 353.69 247.368 354.215C247.894 354.74 248.606 355.034 249.349 355.034H297.538C298.281 355.034 298.994 354.74 299.519 354.215C300.045 353.69 300.34 352.978 300.34 352.236C300.34 351.494 300.045 350.782 299.519 350.257C298.994 349.732 298.281 349.438 297.538 349.438H249.349Z" fill="#FFE162"/>
<path d="M340.123 474.247L330.09 474.617L293.943 396.97L303.088 392.722L340.123 474.247Z" fill="#3F3D56"/>
<path d="M206.203 474.247L216.236 474.617L252.384 396.97L243.238 392.722L206.203 474.247Z" fill="#3F3D56"/>
<path d="M314.908 429.472H231.979V435.069H314.908V429.472Z" fill="#3F3D56"/>
<path d="M300.676 173.296C300.282 173.296 299.894 173.388 299.542 173.566C299.19 173.743 298.885 174 298.65 174.316C298.416 174.633 298.259 174.999 298.192 175.387C298.125 175.775 298.15 176.173 298.265 176.55L300.391 183.509C300.587 184.147 301.028 184.682 301.618 184.995C302.208 185.309 302.899 185.375 303.538 185.181C304.178 184.986 304.713 184.546 305.028 183.956C305.342 183.367 305.41 182.678 305.215 182.039L303.089 175.08C302.931 174.564 302.611 174.112 302.177 173.791C301.742 173.47 301.217 173.296 300.676 173.296Z" fill="#FFE162"/>
<path d="M189.113 329.849C188.444 329.849 187.803 330.114 187.33 330.586C186.857 331.059 186.592 331.699 186.592 332.367C186.592 333.035 186.857 333.676 187.33 334.148C187.803 334.621 188.444 334.886 189.113 334.886H196.397C197.066 334.886 197.708 334.621 198.18 334.148C198.653 333.676 198.919 333.035 198.919 332.367C198.919 331.699 198.653 331.059 198.18 330.586C197.708 330.114 197.066 329.849 196.397 329.849H189.113Z" fill="#FFE162"/>
<path d="M249.349 311.379H219.091C218.9 311.379 218.715 311.385 218.53 311.402C216.554 311.543 214.703 312.426 213.352 313.874C212.001 315.322 211.248 317.227 211.246 319.207C211.244 321.187 211.992 323.094 213.341 324.544C214.689 325.995 216.537 326.883 218.514 327.028C218.704 327.045 218.895 327.05 219.091 327.05H249.349C251.429 327.05 253.425 326.225 254.896 324.755C256.367 323.286 257.194 321.293 257.194 319.215C257.194 317.137 256.367 315.144 254.896 313.674C253.425 312.205 251.429 311.379 249.349 311.379V311.379Z" fill="#FF6584"/>
<path opacity="0.2" d="M216.043 326.429C221.198 325.769 225.254 319.271 225.254 311.379H224.134C224.134 319.097 220.111 325.371 215.168 325.371V325.998L216.043 326.429Z" fill="black"/>
<path opacity="0.2" d="M226.936 326.491V325.371C231.879 325.371 235.901 319.094 235.901 311.379H237.022C237.022 319.712 232.497 326.491 226.936 326.491Z" fill="black"/>
<path opacity="0.2" d="M238.703 326.491V325.371C243.646 325.371 247.668 319.094 247.668 311.379H248.789C248.789 319.712 244.264 326.491 238.703 326.491Z" fill="black"/>
<path d="M304.262 311.379H274.004C273.813 311.379 273.628 311.385 273.443 311.402C271.466 311.543 269.616 312.426 268.265 313.874C266.913 315.322 266.161 317.227 266.159 319.207C266.157 321.187 266.905 323.094 268.253 324.544C269.602 325.995 271.45 326.883 273.426 327.028C273.617 327.045 273.808 327.05 274.004 327.05H304.262C306.342 327.05 308.338 326.225 309.809 324.755C311.28 323.286 312.106 321.293 312.106 319.215C312.106 317.137 311.28 315.144 309.809 313.674C308.338 312.205 306.342 311.379 304.262 311.379V311.379Z" fill="#FF6584"/>
<path opacity="0.2" d="M270.955 326.429C276.111 325.769 280.167 319.271 280.167 311.379H279.047C279.047 319.097 275.023 325.371 270.081 325.371V325.998L270.955 326.429Z" fill="black"/>
<path opacity="0.2" d="M281.848 326.491V325.371C286.792 325.371 290.814 319.094 290.814 311.379H291.934C291.934 319.712 287.41 326.491 281.848 326.491Z" fill="black"/>
<path opacity="0.2" d="M293.615 326.491V325.371C298.559 325.371 302.581 319.094 302.581 311.379H303.701C303.701 319.712 299.177 326.491 293.615 326.491Z" fill="black"/>
<path d="M247.135 236.134C243.169 233.994 238.267 236.327 236.291 240.115C233.887 244.722 235.879 250.261 238.682 254.199C241.595 258.291 245.548 261.669 247.492 266.398C249.352 270.848 249.572 275.813 248.114 280.41C246.656 285.008 243.614 288.94 239.528 291.509C237.704 292.661 239.389 295.569 241.225 294.409C245.232 291.908 248.403 288.271 250.332 283.963C252.26 279.654 252.86 274.869 252.053 270.219C251.644 267.807 250.864 265.473 249.74 263.299C248.522 261.081 247.054 259.009 245.365 257.124C242.448 253.676 238.777 249.875 238.594 245.077C238.56 244.455 238.604 243.831 238.723 243.219C238.81 242.792 238.94 242.375 239.111 241.973C239.519 241.111 240.124 240.357 240.877 239.772C241.576 239.216 242.402 238.842 243.282 238.685C244.019 238.575 244.772 238.697 245.438 239.033C247.342 240.06 249.041 237.162 247.135 236.134V236.134Z" fill="#E6E6E6"/>
<path d="M297.724 256.447C296.035 255.905 294.231 255.83 292.503 256.231C290.776 256.632 289.189 257.494 287.913 258.724C287.254 259.402 286.765 260.226 286.488 261.13C286.211 262.033 286.153 262.99 286.32 263.92C286.64 265.955 287.927 267.763 289.322 269.219C292.053 272.069 295.874 273.912 298.164 277.184C299.179 278.578 299.816 280.211 300.013 281.924C300.131 283.462 299.848 285.006 299.193 286.403C297.485 289.871 294.094 292.229 290.518 293.748C289.683 294.103 289.498 295.333 289.915 296.045C290.148 296.421 290.517 296.693 290.945 296.805C291.373 296.917 291.828 296.861 292.215 296.647C298.796 293.853 304.884 287.595 303.069 279.906C302.114 275.861 299.188 273.007 296.037 270.525C294.472 269.379 292.994 268.119 291.614 266.756C290.525 265.6 289.393 264.022 289.593 262.455C289.673 261.91 289.94 261.41 290.348 261.04C290.843 260.588 291.405 260.215 292.014 259.934C292.76 259.577 293.57 259.371 294.397 259.328C295.223 259.285 296.05 259.406 296.83 259.685C297.26 259.799 297.717 259.74 298.104 259.521C298.49 259.301 298.776 258.939 298.898 258.512C299.007 258.083 298.946 257.628 298.727 257.243C298.508 256.858 298.148 256.573 297.724 256.447V256.447Z" fill="#E6E6E6"/>
<path d="M272.13 208.678C271.128 207.823 269.863 207.337 268.546 207.3C267.297 207.323 266.083 207.715 265.056 208.427C262.738 210.109 261.098 212.563 260.432 215.347C258.733 221.847 260.949 228.852 264.028 234.577C265.585 237.471 267.398 240.218 268.964 243.106C270.475 245.868 271.635 248.808 272.417 251.857C274.012 258.109 274.155 264.642 272.833 270.957C271.488 277.243 268.657 283.468 263.842 287.805C263.527 288.119 263.35 288.547 263.35 288.992C263.35 289.437 263.527 289.864 263.842 290.179C264.158 290.494 264.585 290.671 265.031 290.671C265.477 290.671 265.904 290.494 266.22 290.179C270.493 286.33 273.351 281.049 275.077 275.619C276.98 269.487 277.537 263.016 276.709 256.649C276.335 253.478 275.612 250.359 274.554 247.346C273.407 244.311 271.975 241.392 270.277 238.627C267.117 233.29 263.754 227.893 263.296 221.539C263.071 218.414 263.463 215.157 265.398 212.644C265.292 212.782 265.483 212.544 265.484 212.543C265.601 212.403 265.723 212.266 265.849 212.133C266.089 211.876 266.347 211.636 266.621 211.415C266.563 211.461 266.414 211.561 266.685 211.373C266.819 211.28 266.957 211.19 267.098 211.107C267.213 211.04 267.331 210.98 267.449 210.918C267.519 210.882 267.59 210.848 267.661 210.817C267.498 210.887 267.507 210.888 267.689 210.819C267.821 210.778 268.472 210.637 268.11 210.683C268.231 210.668 268.352 210.661 268.474 210.659C268.525 210.658 268.978 210.682 268.757 210.657C268.498 210.629 268.962 210.703 268.965 210.704C269.11 210.74 269.253 210.785 269.392 210.839C269.042 210.7 269.965 211.218 269.752 211.053C270.074 211.355 270.499 211.523 270.941 211.523C271.383 211.523 271.808 211.355 272.13 211.053C272.71 210.473 272.85 209.238 272.13 208.678L272.13 208.678Z" fill="#E6E6E6"/>
<path d="M143.047 461.026L130.373 464.384L107.095 356.913L133.219 354.588L143.047 461.026Z" fill="#FFB9B9"/>
<path d="M85.0611 462.677L72.0961 464.634L60.7017 355.267L86.9225 355.804L85.0611 462.677Z" fill="#FFB9B9"/>
<path d="M78.3857 307.053L79.5829 329.374C79.6269 330.195 79.4936 331.015 79.1919 331.78C78.8902 332.545 78.4273 333.237 77.8346 333.807C77.2418 334.378 76.5331 334.814 75.7566 335.087C74.9801 335.359 74.1539 335.462 73.3342 335.387V335.387C71.9943 335.266 70.7399 334.678 69.7902 333.726C68.8404 332.774 68.2556 331.52 68.1381 330.181L65.9707 305.503L48.9001 247.633L49.4174 210.432L69.5918 211.465L78.3857 307.053Z" fill="#FFB9B9"/>
<path d="M89.2487 361.821C79.1433 358.317 67.4181 357.628 54.073 359.755C55.9656 337.362 57.0617 316.568 56.1422 299.819H124.942L89.2487 361.821Z" fill="#2F2E41"/>
<path d="M137.357 361.305C126.941 366.808 111.875 369.443 94.4218 370.605L72.6956 301.369L125.976 300.336L137.357 361.305Z" fill="#2F2E41"/>
<path d="M164.177 472.261L126.696 473.647C121.895 473.825 121.642 469.706 122.548 464.994L126.985 452.338C136.976 462.114 137.917 462.66 142.199 448.753L155.27 459.065L164.945 460.722C166.3 460.954 167.529 461.657 168.414 462.708C169.299 463.758 169.784 465.088 169.782 466.461V466.461C169.779 467.964 169.194 469.407 168.149 470.489C167.104 471.57 165.681 472.205 164.177 472.261V472.261Z" fill="#2F2E41"/>
<path d="M107.41 472.261L69.9288 473.647C65.1276 473.825 64.8743 469.706 65.7807 464.994L70.2181 452.338C80.2086 462.114 81.1495 462.66 85.4322 448.753L98.5027 459.065L108.178 460.722C109.532 460.954 110.761 461.657 111.647 462.708C112.532 463.758 113.016 465.088 113.014 466.461V466.461C113.012 467.964 112.427 469.407 111.382 470.489C110.337 471.57 108.913 472.205 107.41 472.261Z" fill="#2F2E41"/>
<path d="M116.148 155.663C127.29 155.663 136.322 146.641 136.322 135.512C136.322 124.383 127.29 115.361 116.148 115.361C105.006 115.361 95.9736 124.383 95.9736 135.512C95.9736 146.641 105.006 155.663 116.148 155.663Z" fill="#FFB9B9"/>
<path d="M105.802 171.164L82.0066 163.93L98.0428 140.162L116.148 147.913L105.802 171.164Z" fill="#FFB9B9"/>
<path d="M128.046 306.019C103.584 311.512 76.43 309.333 53.0385 302.919C58.6401 271.719 55.9357 238.207 50.452 210.949C46.1599 189.613 57.4825 171.71 76.3165 162.897C80.3649 161.447 84.5764 160.499 88.8563 160.076C102.068 158.907 113.693 168.802 115.071 181.978L128.046 306.019Z" fill="#FFE162"/>
<path d="M64.419 221.283L47.3484 219.216L52.5214 192.348H64.419V221.283Z" fill="#FFE162"/>
<path d="M115.866 138.703L112.775 137.331C112.075 137.021 111.316 136.867 110.55 136.879C109.784 136.892 109.03 137.07 108.34 137.403C107.65 137.735 107.041 138.213 106.555 138.804C106.068 139.395 105.716 140.085 105.523 140.825V140.825L101.216 148.598L90.4883 146.902L90.863 130.447C91.3515 127.338 92.4737 124.361 94.1601 121.702C95.8466 119.043 98.0615 116.759 100.668 114.989C103.274 113.22 106.216 112.003 109.312 111.415C112.407 110.828 115.591 110.88 118.666 111.571L118.958 111.637C124.196 112.821 130.994 116.661 134.544 120.693L141.156 128.205C141.47 128.561 141.68 128.996 141.763 129.464C141.846 129.931 141.799 130.412 141.628 130.854C141.457 131.297 141.167 131.684 140.791 131.973C140.415 132.263 139.967 132.444 139.494 132.497L130.45 133.494L115.866 138.703Z" fill="#2F2E41"/>
<path d="M182.782 276.127L171.197 286.276C171.03 286.423 170.811 286.497 170.588 286.482C170.366 286.468 170.159 286.365 170.012 286.198C169.865 286.031 169.791 285.812 169.805 285.59C169.819 285.368 169.922 285.161 170.089 285.014L181.673 274.865L179.456 272.34L167.872 282.489C167.704 282.636 167.485 282.71 167.263 282.695C167.041 282.681 166.833 282.579 166.686 282.411C166.54 282.244 166.465 282.025 166.48 281.803C166.494 281.581 166.596 281.374 166.763 281.227L178.348 271.078L176.131 268.553L164.547 278.702C164.464 278.775 164.367 278.831 164.263 278.867C164.158 278.902 164.047 278.917 163.937 278.91C163.827 278.902 163.719 278.874 163.62 278.825C163.521 278.776 163.433 278.708 163.36 278.625C163.287 278.543 163.231 278.446 163.196 278.342C163.16 278.237 163.146 278.127 163.153 278.017C163.16 277.907 163.189 277.799 163.238 277.7C163.287 277.601 163.355 277.513 163.438 277.44L175.022 267.291L172.251 264.135L155.881 278.478C154.419 279.759 153.443 281.502 153.114 283.416C152.786 285.33 153.126 287.298 154.077 288.992L104.652 332.294L109.086 337.343L158.479 294.069C159.985 295.257 161.861 295.881 163.78 295.831C165.699 295.782 167.54 295.063 168.983 293.8L185.553 279.283L182.782 276.127Z" fill="#E6E6E6"/>
<path d="M126.494 307.053L127.691 329.374C127.735 330.195 127.601 331.015 127.3 331.78C126.998 332.545 126.535 333.237 125.942 333.807C125.35 334.378 124.641 334.814 123.865 335.087C123.088 335.359 122.262 335.462 121.442 335.387V335.387C120.102 335.266 118.848 334.678 117.898 333.726C116.948 332.774 116.364 331.52 116.246 330.181L114.079 305.503L97.0081 247.633L97.5254 210.432L117.7 211.465L126.494 307.053Z" fill="#FFB9B9"/>
<path d="M119.252 217.149C113.113 211.267 105.011 211.052 95.9736 213.532V185.764C95.9736 182.44 97.2957 179.252 99.6489 176.901C102.002 174.551 105.194 173.23 108.522 173.23V173.23C110.054 173.23 111.57 173.536 112.982 174.13C114.393 174.724 115.672 175.594 116.742 176.688C117.812 177.783 118.653 179.08 119.214 180.503C119.775 181.927 120.046 183.448 120.01 184.978L119.252 217.149Z" fill="#FFE162"/>
<g clip-path="url(#clip0)">
<path opacity="0.1" d="M1012.17 263.831C1006.04 278.546 993.216 291.838 979.447 304.426C967.344 315.494 954.397 326.189 940.607 336.511C936.785 339.376 932.902 342.206 928.959 345L926.219 346.929C923.79 348.644 921.319 350.344 918.807 352.027L918.506 352.231C916.069 353.886 913.611 355.525 911.132 357.147C903.02 362.466 894.446 367.747 884.967 372.121C881.738 373.614 878.406 375.006 874.956 376.252C873.09 376.929 871.184 377.563 869.239 378.154C866.053 379.121 862.78 379.964 859.362 380.658C858.792 380.776 858.216 380.889 857.64 380.996C854.141 381.651 850.6 382.13 847.02 382.457C833.903 383.655 820.355 382.78 807.216 380.727C800.65 379.701 794.185 378.38 787.931 376.875C787.161 376.693 786.397 376.505 785.627 376.338C764.328 371.019 744.332 363.798 722.883 358.721C715.491 356.97 707.955 355.483 700.276 354.262C696.53 353.668 692.762 353.13 688.973 352.65C680.054 351.544 671.022 350.802 661.952 350.426C649.723 349.889 637.096 350.12 625.458 352.253C623.908 352.536 622.378 352.854 620.867 353.209C618.951 353.657 617.071 354.167 615.226 354.74C610.254 356.344 605.415 358.332 600.753 360.688C599.832 361.139 598.923 361.596 598.013 362.058C595.16 363.508 592.345 364.991 589.487 366.431C584.343 369.118 578.99 371.386 573.479 373.211C570.461 374.163 567.392 374.945 564.286 375.554C556.067 377.198 547.32 377.848 538.536 377.891C534.3 377.891 530.058 377.799 525.865 377.579H525.736C524.304 377.504 522.867 377.418 521.43 377.31C514.885 376.864 508.361 376.177 501.934 375.237C479.914 372.013 459.03 365.921 442.231 356.626C419.414 344.011 404.925 325.202 407.099 306.409C408.66 292.87 418.354 280.298 427.553 267.989C444.664 245.07 460.693 221.629 469.128 196.921C475.969 176.865 478.009 155.66 493.753 137.635C498.796 131.864 505.245 126.599 512.753 121.984C518.366 118.554 524.249 115.586 530.343 113.109C537.232 110.293 544.318 107.985 551.545 106.205C557.809 104.654 564.156 103.463 570.556 102.638C574.034 102.186 577.554 101.837 581.095 101.601C583.823 101.411 586.562 101.291 589.315 101.241H589.74C591.423 101.209 593.106 101.209 594.789 101.241C607.06 101.43 619.298 102.578 631.39 104.674C638.958 105.936 646.461 107.484 653.808 109.187C658.193 110.2 662.539 111.262 666.845 112.373C668.158 112.711 669.472 113.055 670.769 113.404C701.406 121.597 728.362 132.912 757.88 142.196C758.031 142.244 758.176 142.293 758.327 142.33C764.385 144.19 770.537 145.732 776.757 146.951C781.326 147.864 785.998 148.654 790.751 149.347C798.028 150.421 805.462 151.27 812.949 152.001L814.601 152.162C825.587 153.237 836.67 154.037 847.435 154.972C851.256 155.305 855.046 155.649 858.781 156.046C861.149 156.283 863.496 156.533 865.822 156.799C867.49 156.992 869.164 157.185 870.838 157.39C872.512 157.594 874.283 157.809 876.005 158.029C877.125 158.169 878.239 158.314 879.359 158.469C886.141 159.367 892.907 160.371 899.597 161.521C903.666 162.219 907.714 162.972 911.713 163.783C914.609 164.37 917.48 164.99 920.325 165.642C922.435 166.118 924.527 166.62 926.601 167.146C943.454 171.374 959.225 176.919 972.816 184.403C1008.11 203.792 1023.9 235.689 1012.17 263.831Z" fill="#FFE162"/>
<path opacity="0.1" d="M539.02 48.5681C545.45 48.5681 550.663 43.3652 550.663 36.9472C550.663 30.5291 545.45 25.3263 539.02 25.3263C532.59 25.3263 527.378 30.5291 527.378 36.9472C527.378 43.3652 532.59 48.5681 539.02 48.5681Z" fill="#FFE162"/>
<path opacity="0.1" d="M776.988 23.2418C783.418 23.2418 788.631 18.0389 788.631 11.6209C788.631 5.20284 783.418 0 776.988 0C770.558 0 765.346 5.20284 765.346 11.6209C765.346 18.0389 770.558 23.2418 776.988 23.2418Z" fill="#FFE162"/>
<path opacity="0.1" d="M918.092 49.2665C924.522 49.2665 929.734 44.0637 929.734 37.6456C929.734 31.2276 924.522 26.0247 918.092 26.0247C911.662 26.0247 906.449 31.2276 906.449 37.6456C906.449 44.0637 911.662 49.2665 918.092 49.2665Z" fill="#FFE162"/>
<path opacity="0.1" d="M424.512 84.5375C435.288 84.5375 444.023 75.8179 444.023 65.0619C444.023 54.3058 435.288 45.5863 424.512 45.5863C413.736 45.5863 405 54.3058 405 65.0619C405 75.8179 413.736 84.5375 424.512 84.5375Z" fill="#FFE162"/>
<path opacity="0.1" d="M443.216 180.707C453.992 180.707 462.728 171.987 462.728 161.231C462.728 150.475 453.992 141.755 443.216 141.755C432.44 141.755 423.704 150.475 423.704 161.231C423.704 171.987 432.44 180.707 443.216 180.707Z" fill="#FFE162"/>
<path opacity="0.1" d="M966.895 145.307C977.671 145.307 986.407 136.587 986.407 125.831C986.407 115.075 977.671 106.355 966.895 106.355C956.119 106.355 947.383 115.075 947.383 125.831C947.383 136.587 956.119 145.307 966.895 145.307Z" fill="#FFE162"/>
<path d="M595.731 128.593C595.827 130.228 595.732 131.869 595.445 133.482C594.369 138.473 589.815 141.9 585.407 144.501C580.999 147.101 576.154 149.562 573.533 153.951C570.373 159.254 571.38 166.383 575.089 171.337C578.797 176.29 584.675 179.24 590.725 180.47C601.759 182.743 613.843 179.551 622.116 171.922C630.389 164.293 634.539 152.372 632.51 141.299C628.02 141.927 624.021 137.973 622.568 133.686C621.115 129.398 621.416 124.751 620.851 120.254C620.81 119.494 620.58 118.756 620.183 118.105C619.554 117.235 618.44 116.88 617.401 116.596C612.212 115.172 603.481 112.056 598.104 113.248C593.26 114.355 595.65 124.531 595.731 128.593Z" fill="#BE6F72"/>
<path opacity="0.1" d="M595.731 128.593C595.827 130.228 595.732 131.869 595.445 133.482C594.369 138.473 589.815 141.9 585.407 144.501C580.999 147.101 576.154 149.562 573.533 153.951C570.373 159.254 571.38 166.383 575.089 171.337C578.797 176.29 584.675 179.24 590.725 180.47C601.759 182.743 613.843 179.551 622.116 171.922C630.389 164.293 634.539 152.372 632.51 141.299C628.02 141.927 624.021 137.973 622.568 133.686C621.115 129.398 621.416 124.751 620.851 120.254C620.81 119.494 620.58 118.756 620.183 118.105C619.554 117.235 618.44 116.88 617.401 116.596C612.212 115.172 603.481 112.056 598.104 113.248C593.26 114.355 595.65 124.531 595.731 128.593Z" fill="black"/>
<path d="M589.46 366.442C584.316 369.129 578.963 371.397 573.452 373.222C570.434 374.173 567.365 374.955 564.259 375.564C564.039 371.433 564.265 367.29 564.932 363.207C565.351 360.86 565.97 358.533 566.132 356.153C566.361 352.718 565.624 349.287 564.006 346.246C570.002 345.43 575.697 344.097 581.72 344.489L582.102 344.516C582.818 344.534 583.527 344.667 584.201 344.908C585.128 345.356 585.915 346.047 586.478 346.907C586.788 347.329 587.074 347.769 587.334 348.223C589.035 351.157 589.681 354.541 589.815 358.028C589.878 360.837 589.76 363.648 589.46 366.442V366.442Z" fill="#BE6F72"/>
<path d="M620.845 353.214C618.929 353.662 617.049 354.173 615.205 354.746C610.232 356.349 605.393 358.338 600.731 360.693C600.428 359.23 600.28 357.739 600.289 356.245C603.037 354.354 606.137 353.033 609.406 352.362C612.674 351.691 616.045 351.683 619.317 352.339C619.754 352.392 620.17 352.558 620.522 352.822C620.65 352.935 620.759 353.068 620.845 353.214V353.214Z" fill="#BE6F72"/>
<path d="M630.098 326.094C629.732 329.607 629.194 333.132 627.945 336.436C626.594 339.982 624.398 343.42 624.678 347.208C624.802 348.852 625.362 350.636 625.442 352.264C623.892 352.546 622.362 352.865 620.851 353.22C618.935 353.668 617.054 354.178 615.21 354.751C610.238 356.355 605.399 358.343 600.736 360.698C599.816 361.15 598.906 361.606 597.997 362.068C597.62 362.02 597.248 361.961 596.872 361.891C594.18 361.402 591.349 360.199 589.826 358.05C589.477 357.555 589.203 357.012 589.013 356.438C588.136 353.822 589.051 350.56 587.226 348.487L587.14 348.562L587.075 348.605C586.076 349.509 584.978 350.298 583.803 350.958V350.958C581.127 352.469 578.164 353.402 575.104 353.697C572.044 353.991 568.956 353.64 566.04 352.666C564.885 352.274 563.77 351.774 562.709 351.173C560.243 349.771 557.864 347.412 558.058 344.597C558.166 343.028 559.065 341.524 558.822 339.971C558.645 338.859 557.913 337.935 557.364 336.952C553.763 330.505 558.058 322.215 555.797 315.209C555.744 315.042 555.684 314.876 555.625 314.715C555.458 314.258 555.27 313.817 555.087 313.377C554.624 312.351 554.107 311.341 553.698 310.288C553.358 309.402 553.088 308.492 552.891 307.564C552.383 304.87 552.202 302.124 552.353 299.387C552.353 292.171 553.644 284.784 555.485 277.832C555.814 276.596 556.18 274.85 556.664 272.948C557.136 270.944 557.774 268.981 558.57 267.081C559.646 264.61 561.11 262.638 563.112 262.171C566.127 261.467 570.734 262.955 573.791 263.321L585.875 264.76L610.037 267.645C614.209 268.145 618.59 268.72 622.03 271.062C622.256 271.218 622.476 271.379 622.697 271.551C623.606 272.266 624.42 273.093 625.119 274.012C625.367 274.329 625.604 274.662 625.83 275.001C626.614 276.198 627.281 277.469 627.821 278.794C630.819 285.982 630.889 294.003 630.911 301.788C630.911 309.912 630.938 318.029 630.098 326.094Z" fill="#3F3D56"/>
<path opacity="0.1" d="M583.776 350.99C583.049 348.196 581.515 344.151 581.289 343.05C580.531 339.355 579.981 335.62 579.642 331.864C579.045 325.17 577.968 315.746 580.336 309.38C582.559 310.562 584.513 313.909 585.541 316.192C589.266 324.471 585.073 334.636 588.572 343.012C588.833 343.514 588.996 344.061 589.051 344.624C588.99 345.338 588.733 346.022 588.308 346.601L587.129 348.556L583.776 350.99Z" fill="black"/>
<path d="M661.295 95.3954C665.257 88.9483 670.682 82.6087 670.343 75.071C670.22 72.3847 669.337 69.7575 668.664 67.1249C666.736 59.5058 666.609 51.5436 668.293 43.8671C674.949 42.7997 681.761 44.3228 687.325 48.1221C689.085 49.3363 690.754 50.846 691.529 52.8393C692.245 54.6767 692.127 56.7236 691.997 58.69C691.701 63.2083 691.298 68.0275 688.509 71.5842C687.643 72.6963 686.577 73.6365 685.732 74.7594C684.499 76.3711 683.778 78.3375 683.073 80.2555L673.923 105.104C669.305 117.627 664.299 130.725 654.126 139.391C653.878 139.601 646.59 129.269 645.987 128.233C643.549 123.983 644.615 122.188 647.564 118.632C653.383 111.599 656.543 103.116 661.295 95.3954Z" fill="#BE6F72"/>
<path d="M556.433 307.188C556.401 309.042 556.245 310.893 555.964 312.727C555.867 313.404 555.754 314.075 555.62 314.747C553.784 324.31 549.215 333.406 546.017 342.722C541.803 355.02 539.951 365.69 538.482 377.901C534.246 377.901 530.004 377.81 525.811 377.59H525.682C524.25 377.515 522.813 377.429 521.376 377.321C522.673 365.931 520.299 353.983 522.619 342.582C523.556 337.994 525.155 333.54 526.118 328.973C526.415 327.629 526.64 326.269 526.791 324.901C526.925 323.601 526.995 322.252 527.582 321.081C527.636 320.968 527.697 320.858 527.765 320.753C528.28 319.943 528.92 319.218 529.66 318.604C536.218 312.864 544.24 309.046 552.837 307.574C554.059 307.408 555.248 307.268 556.433 307.188Z" fill="#FBBEBE"/>
<path opacity="0.1" d="M556.433 307.188C556.401 309.042 556.245 310.893 555.964 312.727C555.867 313.404 555.754 314.075 555.62 314.747C553.784 324.31 549.215 333.406 546.017 342.722C541.803 355.02 539.951 365.69 538.482 377.901C534.246 377.901 530.004 377.81 525.811 377.59H525.682C524.25 377.515 522.813 377.429 521.376 377.321C522.673 365.931 520.299 353.983 522.619 342.582C523.556 337.994 525.155 333.54 526.118 328.973C526.415 327.629 526.64 326.269 526.791 324.901C526.925 323.601 526.995 322.252 527.582 321.081C527.636 320.968 527.697 320.858 527.765 320.753C528.28 319.943 528.92 319.218 529.66 318.604C536.218 312.864 544.24 309.046 552.837 307.574C554.059 307.408 555.248 307.268 556.433 307.188Z" fill="black"/>
<path d="M529.143 331.67C529.056 334.656 528.81 337.635 528.406 340.594C526.969 352.688 526.7 365.308 525.715 377.584C524.283 377.509 522.846 377.423 521.408 377.316C514.863 376.87 508.34 376.182 501.913 375.242C502.408 372.477 502.907 369.712 503.409 366.947C504.023 363.557 504.636 360.134 504.459 356.696C504.292 353.445 503.42 350.281 502.726 347.095C501.245 340.272 500.417 332.911 497.978 326.475C496.707 322.865 494.677 319.568 492.025 316.805C502.112 312.85 511.806 312.625 522.641 313.044C523.41 313.001 524.175 313.188 524.837 313.581C525.351 314.025 525.732 314.601 525.941 315.246C527.569 319.156 528.591 323.29 528.971 327.507C529.1 328.891 529.158 330.28 529.143 331.67V331.67Z" fill="#FBBEBE"/>
<path d="M610.393 125.82C621.986 125.82 631.384 116.439 631.384 104.867C631.384 93.2952 621.986 83.9142 610.393 83.9142C598.799 83.9142 589.401 93.2952 589.401 104.867C589.401 116.439 598.799 125.82 610.393 125.82Z" fill="#BE6F72"/>
<path d="M614.758 153.838C617.449 149.255 619.807 143.534 624.985 142.26C627.907 141.535 630.948 142.524 633.796 143.496C634.621 143.691 635.37 144.125 635.949 144.742C636.369 145.409 636.595 146.179 636.6 146.967C637.502 156.438 637.471 165.976 636.509 175.441C635.825 182.141 634.673 188.808 634.469 195.54C634.183 204.872 635.723 214.204 635.217 223.526C634.835 230.591 633.284 237.532 631.745 244.436L625.286 273.34C625.17 274.235 624.811 275.08 624.247 275.785C623.702 276.283 623.051 276.651 622.342 276.859C612.993 280.158 603.054 281.463 593.168 280.691C583.282 279.918 573.668 277.085 564.948 272.373C562.617 271.095 560.292 269.617 558.774 267.436C556.621 264.341 556.422 260.247 557.121 256.54C557.821 252.833 559.334 249.336 560.351 245.698C561.923 240.057 562.294 234.169 562.649 228.324C563.123 220.63 563.597 212.888 562.773 205.222C562.208 199.94 561.029 194.74 560.141 189.501C558.833 181.606 558.074 173.631 557.87 165.631C557.735 160.855 557.956 155.552 561.266 152.108C562.881 150.432 565.034 149.422 567.224 148.605C570.901 147.251 575.008 146.456 578.722 147.692C582.436 148.928 585.428 152.817 584.551 156.627C584.147 158.394 583.001 159.942 582.721 161.736C582.349 164.111 583.609 166.501 585.412 168.108C595.111 176.854 609.919 162.134 614.758 153.838Z" fill="#E3E8F4"/>
<path d="M615.528 132.429C618.473 131.346 621.674 131.159 624.726 131.891C626.67 132.353 628.769 133.17 630.561 132.305C631.212 131.993 631.751 131.483 632.407 131.193C634.184 130.414 636.487 131.37 638.059 130.237C639.049 129.522 639.372 128.222 639.706 127.04C641.322 121.398 644.635 116.387 649.195 112.684C648.63 116.805 648.221 121.495 650.95 124.644C652.194 126.073 653.937 126.97 655.703 127.668C658.238 128.673 661.021 129.339 663.696 128.791C666.371 128.243 668.874 126.223 669.299 123.532C669.208 127.577 665.348 130.403 664.267 134.309C663.858 135.77 663.895 137.323 663.61 138.817C662.883 142.631 660.154 145.693 657.77 148.767C650.154 158.651 645.289 170.368 643.668 182.732C643.557 184.199 643.25 185.645 642.753 187.03C642.225 188.092 641.628 189.119 640.966 190.103C637.02 196.754 638.237 205.146 639.577 212.743C641.671 224.643 643.759 236.302 647.15 247.901C647.731 249.884 648.388 251.952 649.868 253.397C649.4 258.088 644.658 260.226 640.395 262.251C636.186 264.255 632.303 266.879 628.876 270.036C627.649 271.165 626.438 272.432 625.991 274.039C625.571 275.549 625.873 277.209 625.335 278.675C624.796 280.142 622.643 281.195 621.696 279.959C620.512 275.538 622.536 270.912 622.444 266.335C622.38 263.245 621.368 260.242 621.222 257.153C621.082 253.655 622.116 250.222 623.214 246.902C626.271 237.656 629.964 228.496 631.024 218.82C632.084 209.144 630.104 198.576 623.225 191.672C615.059 183.441 610.527 172.282 601.775 164.723C600.387 163.525 598.815 162.037 599.046 160.221C599.206 159.421 599.559 158.672 600.074 158.04C603.078 153.806 607.072 150.351 610.301 146.301C613.531 142.25 616.114 137.586 615.528 132.429Z" fill="#3F3D56"/>
<path d="M586.79 141.095C586.252 141.632 585.88 142.373 585.256 142.835C584.527 143.284 583.695 143.541 582.839 143.582C579.672 144.062 576.477 144.348 573.275 144.436C570.583 144.436 567.79 144.2 565.201 144.936C561.589 145.957 558.704 148.804 556.895 152.081C555.087 155.359 554.231 159.066 553.537 162.757C552.006 170.889 551.187 179.138 551.088 187.412C555.524 183.88 559.478 179.783 562.849 175.226C565.432 171.729 567.774 167.861 571.461 165.524C573.156 164.449 575.062 163.74 576.768 162.692C580.326 160.506 582.791 156.97 585.159 153.559C586.903 151.028 591.947 146.086 592.345 143.056C592.684 140.16 588.674 138.747 586.79 141.095Z" fill="#3F3D56"/>
<path d="M605.543 90.5225C606.208 90.921 606.844 91.3644 607.448 91.8495C611.103 94.3961 615.996 93.9233 620.415 93.3431C621.771 93.1712 623.165 92.9777 624.328 92.2686C626.196 91.1188 627.073 88.7549 626.89 86.5683C626.707 84.3816 625.604 82.3669 624.258 80.6584C622.475 78.3975 620.252 76.5214 617.721 75.1435C615.191 73.7657 612.406 72.9148 609.537 72.6426C608.051 72.4482 606.54 72.6083 605.129 73.11C603.39 73.8245 602.082 75.2966 600.478 76.2798C595.747 79.181 588.459 77.8916 585.407 82.5227C583.173 85.9397 584.766 90.5816 583.711 94.5089C582.926 97.4424 580.659 100.113 581.095 103.105C581.338 104.717 582.35 106.124 583.157 107.564C585.011 110.874 585.869 114.648 585.628 118.433C587.7 119.894 590.59 117.622 591.166 115.161C591.742 112.7 591.08 110.079 591.57 107.597C592.437 103.239 596.29 100.043 598.029 96.0455C599.278 93.1819 601.312 88.3466 605.543 90.5225Z" fill="#3F3D56"/>
<path d="M554.646 138.215C554.484 139.193 554.382 140.273 554.926 141.1C556.002 142.712 558.467 142.131 560.405 142.373C563.425 142.744 565.653 145.597 566.24 148.595C566.826 151.593 566.127 154.644 565.362 157.588C563.633 164.261 561.573 170.839 559.183 177.322C552.756 176.564 545.991 174.098 542.578 168.624C539.478 163.643 539.795 157.298 537.825 151.775C536.442 147.885 533.961 144.501 531.506 141.18C535.452 141.675 538.272 137.173 538.503 133.208C538.735 129.243 537.486 125.219 538.337 121.345C538.536 120.426 554.086 123.322 555.598 124.37C559.969 127.394 555.335 134.013 554.646 138.215Z" fill="#FBBEBE"/>
<path opacity="0.1" d="M554.646 138.215C554.484 139.193 554.382 140.273 554.926 141.1C556.002 142.712 558.467 142.131 560.405 142.373C563.425 142.744 565.653 145.597 566.24 148.595C566.826 151.593 566.127 154.644 565.362 157.588C563.633 164.261 561.573 170.839 559.183 177.322C552.756 176.564 545.991 174.098 542.578 168.624C539.478 163.643 539.795 157.298 537.825 151.775C536.442 147.885 533.961 144.501 531.506 141.18C535.452 141.675 538.272 137.173 538.503 133.208C538.735 129.243 537.486 125.219 538.337 121.345C538.536 120.426 554.086 123.322 555.598 124.37C559.969 127.394 555.335 134.013 554.646 138.215Z" fill="black"/>
<path d="M551.185 131.73C562.778 131.73 572.177 122.349 572.177 110.777C572.177 99.205 562.778 89.8241 551.185 89.8241C539.591 89.8241 530.193 99.205 530.193 110.777C530.193 122.349 539.591 131.73 551.185 131.73Z" fill="#FBBEBE"/>
<path d="M544.72 135.206C545.485 134.013 544.182 132.348 544.779 131.064C545.135 130.29 546.034 129.957 546.728 129.452C547.599 128.745 548.293 127.845 548.757 126.825C552.025 120.557 553.015 113.351 551.556 106.436C551.061 104.115 550.62 101.031 552.746 99.989C553.335 99.7264 553.981 99.6156 554.624 99.6666C558.457 99.7902 562.16 102.353 565.879 101.445C567.149 101.1 568.282 100.377 569.129 99.3719C569.975 98.3666 570.494 97.1274 570.616 95.8198C570.858 92.3492 568.253 89.3727 565.691 87.0357C561.078 82.8021 554.048 81.8619 547.783 81.7598L536.13 81.5664C532.4 81.5019 528.217 81.6201 525.623 84.2903C521.887 88.1317 523.766 94.4176 523.228 99.7418C522.77 103.991 520.64 107.885 517.307 110.568C514.89 112.491 511.564 114.328 511.607 117.401C511.607 118.476 512.07 119.454 512.366 120.469C513.555 124.488 512.42 128.931 510.137 132.45C507.855 135.969 504.518 138.677 501.057 141.046C499.205 142.309 497.289 143.523 495.825 145.237C494.22 147.216 493.267 149.643 493.096 152.183C492.866 154.125 493.266 156.089 494.237 157.787C496.514 161.419 501.977 161.951 505.718 159.845C509.459 157.739 511.741 153.752 513.254 149.744C514.158 147.364 515.079 144.64 517.393 143.571C520.321 142.212 523.744 144.361 525.65 146.967C527.555 149.572 528.729 152.753 531.167 154.87C534.989 158.19 541.491 157.653 544.72 153.752C547.029 150.953 547.541 147.08 547.412 143.453C547.347 140.5 546.411 137.631 544.72 135.206Z" fill="#3F3D56"/>
<path d="M552.256 162.515C549.861 163.025 547.358 161.897 545.576 160.21C543.794 158.523 542.594 156.347 541.345 154.241C538.179 148.929 534.55 143.906 530.5 139.23C526.969 135.163 522.054 131.032 516.812 132.289C515.056 132.794 513.428 133.664 512.032 134.841C507.41 138.494 503.791 143.258 501.516 148.687C499.241 154.117 498.383 160.033 499.022 165.884C499.431 169.306 500.363 172.653 500.75 176.091C501.011 178.926 501.087 181.774 500.976 184.618C500.831 193.278 500.535 202.439 495.857 209.734C488.607 221.017 484.726 234.491 479.403 246.805C476.529 253.462 474.806 260.548 473.116 267.597C472.115 271.781 471.116 275.962 470.118 280.142L463.605 307.488C462.932 310.309 462.26 313.264 462.97 316.085C464.047 320.297 468.014 323.241 472.196 324.439C476.378 325.637 480.808 325.433 485.152 325.47C493.462 325.551 501.837 326.583 509.637 329.462C511.865 330.284 514.088 331.267 516.462 331.461C518.836 331.654 521.198 331.036 523.421 330.177C529.488 327.834 534.687 323.73 540.274 320.415C543.764 318.316 547.44 316.541 551.255 315.112C553.171 314.398 555.227 313.721 556.546 312.157C557.541 310.981 557.988 309.444 558.317 307.94C560.136 299.473 558.914 290.699 558.317 282.06C557.719 273.421 552.546 264.293 556.826 256.761C557.687 255.24 558.715 253.779 559.156 252.092C559.738 249.889 559.248 247.52 559.738 245.296C560.098 243.652 560.965 242.174 561.557 240.6C562.59 237.828 562.73 234.808 562.719 231.848C562.695 225.348 562.01 218.868 560.674 212.507C558.979 204.448 564.587 196.48 567.801 188.867C568.952 186.144 570.583 183.57 571.062 180.653C571.493 178.02 570.939 175.339 570.524 172.701C569.906 168.613 569.653 164.478 569.771 160.344C569.873 156.637 570.266 152.86 569.378 149.255C568.49 145.65 565.954 142.153 562.31 141.411C561.902 141.292 561.472 141.264 561.051 141.33C560.63 141.396 560.23 141.554 559.877 141.793C559.457 142.205 559.16 142.726 559.022 143.297C557.838 146.918 558.069 150.819 557.407 154.58C556.745 158.34 555.97 161.72 552.256 162.515Z" fill="#F86D70"/>
<path d="M501.461 185.59C501.681 184.102 500.987 182.125 499.48 182.179C498.091 182.232 497.472 183.968 497.477 185.359C497.483 186.751 497.671 188.346 496.686 189.324C495.814 190.189 494.372 190.162 493.36 190.866C493.003 191.12 492.712 191.457 492.513 191.847C492.313 192.236 492.21 192.669 492.213 193.106C492.213 193.853 492.552 194.568 492.574 195.315C492.596 196.061 492.095 196.926 491.352 196.878C490.971 197.517 490.812 198.264 490.9 199.003C490.989 199.741 491.32 200.43 491.842 200.961C492.229 201.337 492.735 201.66 492.865 202.186C492.906 202.555 492.876 202.929 492.779 203.287C492.552 204.765 493.575 206.42 495.066 206.581C494.232 207.177 494.399 208.574 495.163 209.267C495.927 209.96 497.025 210.094 498.053 210.094C500.387 210.082 502.694 209.605 504.841 208.692C505.576 208.45 506.226 208.003 506.714 207.403C506.94 207.094 507.049 206.714 507.02 206.332C506.992 205.95 506.828 205.591 506.558 205.318C507.602 205.49 508.856 205.587 509.54 204.781C510.492 203.653 509.47 201.982 508.463 200.891C508.881 200.829 509.271 200.646 509.585 200.365C509.899 200.084 510.123 199.716 510.23 199.309C510.337 198.901 510.321 198.471 510.185 198.073C510.049 197.674 509.798 197.324 509.464 197.066C509.12 196.813 508.652 196.593 508.603 196.169C508.555 195.744 508.915 195.47 509.066 195.094C509.411 194.251 508.625 193.391 507.866 192.881C506.068 191.688 503.42 191.71 501.821 190.506C500.223 189.303 501.229 187.202 501.461 185.59Z" fill="#BE6F72"/>
<path d="M612.503 104.067C611.199 104.198 609.887 104.228 608.579 104.158C608.356 104.134 608.132 104.198 607.956 104.337C607.78 104.475 607.665 104.677 607.637 104.899L605.134 123.639C604.941 124.999 604.383 126.282 603.519 127.351C602.807 128.202 602.277 129.19 601.963 130.254C601.649 131.318 601.558 132.435 601.694 133.535V165.368C601.694 165.368 601.533 169.612 604.8 169.612C608.71 170.103 612.667 170.103 616.577 169.612C616.577 169.612 619.193 169.118 619.193 165.201V133.858C619.393 132.764 619.352 131.64 619.073 130.564C618.794 129.488 618.284 128.485 617.578 127.625C616.743 126.552 616.203 125.28 616.012 123.935L613.412 104.803C613.383 104.588 613.272 104.392 613.103 104.255C612.934 104.118 612.719 104.051 612.503 104.067V104.067Z" fill="#3F3D56"/>
<path opacity="0.1" d="M612.503 104.067C611.199 104.198 609.887 104.228 608.579 104.158C608.356 104.134 608.132 104.198 607.956 104.337C607.78 104.475 607.665 104.677 607.637 104.899L605.134 123.639C604.941 124.999 604.383 126.282 603.519 127.351C602.807 128.202 602.277 129.19 601.963 130.254C601.649 131.318 601.558 132.435 601.694 133.535V165.368C601.694 165.368 601.533 169.612 604.8 169.612C608.71 170.103 612.667 170.103 616.577 169.612C616.577 169.612 619.193 169.118 619.193 165.201V133.858C619.393 132.764 619.352 131.64 619.073 130.564C618.794 129.488 618.284 128.485 617.578 127.625C616.743 126.552 616.203 125.28 616.012 123.935L613.412 104.803C613.383 104.588 613.272 104.392 613.103 104.255C612.934 104.118 612.719 104.051 612.503 104.067V104.067Z" fill="black"/>
<path d="M612.519 134.105H608.552C605.267 134.105 602.604 136.763 602.604 140.042V154.94C602.604 158.218 605.267 160.876 608.552 160.876H612.519C615.803 160.876 618.466 158.218 618.466 154.94V140.042C618.466 136.763 615.803 134.105 612.519 134.105Z" fill="#FFE162"/>
<path d="M665.828 23.0913C664.677 23.7224 663.479 24.2613 662.243 24.7031C662.029 24.7669 661.848 24.9113 661.738 25.1058C661.629 25.3002 661.599 25.5296 661.656 25.7454L666.576 44.0121C666.928 45.338 666.913 46.7342 666.533 48.0523C666.201 49.1112 666.092 50.227 666.213 51.3299C666.333 52.4328 666.68 53.499 667.233 54.4618L679.516 83.839C679.516 83.839 681.001 87.8147 684.021 86.5575C687.822 85.5049 691.475 83.9778 694.893 82.0123C694.893 82.0123 697.116 80.551 695.609 76.9406L683.515 48.0147C683.277 46.9286 682.806 45.907 682.134 45.0203C681.462 44.1336 680.605 43.4029 679.623 42.8785C678.44 42.2099 677.451 41.2452 676.754 40.0794L666.974 23.4244C666.863 23.2317 666.682 23.0894 666.468 23.0273C666.254 22.9652 666.025 22.9882 665.828 23.0913Z" fill="#3F3D56"/>
<path d="M677.441 50.8119L673.78 52.3368C670.749 53.5994 669.316 57.076 670.581 60.1018L676.329 73.8509C677.594 76.8768 681.077 78.3062 684.109 77.0435L687.77 75.5187C690.801 74.2561 692.233 70.7795 690.968 67.7536L685.221 54.0045C683.956 50.9787 680.473 49.5493 677.441 50.8119Z" fill="#FFE162"/>
<path d="M514.777 135.76C508.991 138.14 506.703 145.543 508.06 151.636C509.416 157.728 513.501 162.805 517.484 167.635L528.648 181.228C531.732 184.988 535.107 188.948 539.811 190.259C546.69 192.177 553.569 187.804 559.517 183.849C577.27 172.041 596.248 162.177 616.12 154.429C618.063 153.677 620.054 152.914 621.653 151.571C624.968 148.788 625.9 143.657 624.053 139.751C622.207 135.846 617.907 133.304 613.574 133.272C609.241 133.24 605.026 135.529 602.421 138.988C601.178 140.638 600.268 142.524 599.068 144.2C596.032 148.412 591.295 151.018 586.661 153.371C575.487 159.062 563.984 164.085 552.213 168.414C550.06 169.198 547.632 169.945 545.603 168.908C544.359 168.269 543.52 167.06 542.766 165.878C539.332 160.483 536.601 154.673 534.639 148.589C533.169 144.023 531.98 139.048 528.449 135.803C523.443 131.204 514.379 132.305 510.627 137.952C510.627 137.952 506.229 144.372 508.921 147.058C511.612 149.744 514.777 135.76 514.777 135.76Z" fill="#FBBEBE"/>
<path d="M816.652 113.528C817.438 115.618 817.459 117.906 817.346 120.136C817.206 122.855 816.523 126.046 813.993 127.083C812.346 127.744 810.311 127.244 808.847 128.243C807.071 129.447 807.157 132.036 807.431 134.153C808.19 139.972 809.046 146.005 812.222 150.926C813.928 153.564 816.237 155.762 818.579 157.862C823.245 162.064 828.364 166.168 834.495 167.571C835.493 167.852 836.544 167.896 837.563 167.7C838.567 167.39 839.479 166.836 840.216 166.088C843.769 162.832 845.599 158.185 847.967 153.973C849.641 150.959 851.638 148.063 852.58 144.742C853.356 141.841 853.304 138.782 852.431 135.908C851.558 133.035 849.899 130.462 847.639 128.48C846.589 127.582 845.427 126.83 844.41 125.901C841.751 123.494 840.2 120.039 839.565 116.515C838.93 112.991 839.027 109.364 839.334 105.77C833.951 105.356 828.606 106.006 823.353 107.054C821.017 107.521 817.728 107.736 815.613 108.848C813.234 110.111 816 111.728 816.652 113.528Z" fill="#FBBEBE"/>
<path opacity="0.1" d="M816.652 113.528C817.438 115.618 817.459 117.906 817.346 120.136C817.206 122.855 816.523 126.046 813.993 127.083C812.346 127.744 810.311 127.244 808.847 128.243C807.071 129.447 807.157 132.036 807.431 134.153C808.19 139.972 809.046 146.005 812.222 150.926C813.928 153.564 816.237 155.762 818.579 157.862C823.245 162.064 828.364 166.168 834.495 167.571C835.493 167.852 836.544 167.896 837.563 167.7C838.567 167.39 839.479 166.836 840.216 166.088C843.769 162.832 845.599 158.185 847.967 153.973C849.641 150.959 851.638 148.063 852.58 144.742C853.356 141.841 853.304 138.782 852.431 135.908C851.558 133.035 849.899 130.462 847.639 128.48C846.589 127.582 845.427 126.83 844.41 125.901C841.751 123.494 840.2 120.039 839.565 116.515C838.93 112.991 839.027 109.364 839.334 105.77C833.951 105.356 828.606 106.006 823.353 107.054C821.017 107.521 817.728 107.736 815.613 108.848C813.234 110.111 816 111.728 816.652 113.528Z" fill="black"/>
<path d="M786.617 129.339C777.876 126.347 773.699 114.656 764.549 113.345C763.107 113.136 761.626 113.216 760.211 112.883C754.941 111.637 752.675 105.555 751.152 100.37C746.017 83.0869 739.31 66.174 729.783 50.8514C725.762 44.4043 719.406 39.107 716.504 32.0474C715.837 30.4356 715.498 28.5982 714.298 27.3249C713.097 26.0516 710.53 25.8689 709.879 27.4915C709.697 28.0662 709.656 28.6761 709.76 29.2698L710.39 35.9586L699.442 34.9755C698.429 34.8031 697.39 34.8768 696.411 35.1904C695.355 35.718 694.513 36.5926 694.027 37.6671C690.324 44.6138 694.269 53.715 700.804 58.1098C708.436 63.2406 719.336 64.0196 724.406 71.6755C727.42 76.2314 727.479 82.0929 729.466 87.1807C730.413 89.6145 731.796 91.8495 732.9 94.2081C735.004 98.7049 736.081 103.594 737.712 108.279C740.048 114.978 743.509 121.221 746.959 127.427C749.618 132.219 752.341 137.097 756.432 140.761C759.123 143.168 762.288 144.952 765.453 146.671C773.237 150.916 782.414 154.999 790.66 151.743C791.133 144.404 789.287 136.222 786.617 129.339Z" fill="#FBBEBE"/>
<path d="M813.159 360.618C812.497 367.629 808.234 373.979 807.238 380.727C800.671 379.701 794.207 378.38 787.952 376.875C787.182 376.693 786.418 376.505 785.648 376.338C789.19 366.667 786.106 355.836 787.043 345.537C787.134 344.549 787.263 343.56 787.435 342.582C795.547 339.821 802.873 336.135 811.377 337.21C811.544 338.929 811.716 340.653 811.883 342.373C812.224 345.807 812.561 349.239 812.895 352.666C813.236 355.302 813.325 357.965 813.159 360.618V360.618Z" fill="#FBBEBE"/>
<path d="M869.256 378.154C866.069 379.121 862.797 379.965 859.379 380.658C858.808 380.776 858.232 380.889 857.656 380.996C854.158 381.651 850.616 382.13 847.037 382.457C846.671 374.989 841.654 368.123 840.922 360.457C840.772 358.551 840.792 356.637 840.981 354.735C841.046 353.983 841.121 353.231 841.191 352.478L842.709 337.022C843.917 336.87 845.136 336.81 846.353 336.844C853.35 337.011 859.718 340.036 866.651 342.394C867.167 345.655 867.348 348.96 867.189 352.258C866.925 360.65 865.574 369.144 868.696 376.843C868.874 377.278 869.067 377.713 869.256 378.154Z" fill="#FBBEBE"/>
<path d="M778.398 260.312C779.34 267.64 775.588 274.657 773.963 281.861C772.886 286.627 772.741 291.532 772.596 296.421L771.745 325.707C771.659 328.635 771.584 331.617 772.477 334.427C774.275 340.057 779.814 343.861 785.578 345.215C791.343 346.569 797.371 345.881 803.244 345.107C806.123 344.726 809.127 344.28 811.511 342.62C814.789 340.336 816.221 336.269 817.459 332.476L820.952 321.769C824.973 330.805 823.272 340.686 825.684 350.276C825.838 351.162 826.208 351.998 826.76 352.709C827.777 353.838 829.451 354.015 830.975 354.122C841.524 354.864 852.22 355.6 862.597 353.585C865.45 353.048 868.426 352.178 870.396 350.039C872.689 347.552 873.088 343.893 873.061 340.514C872.915 328.904 868.712 317.702 867.775 306.129C867.371 301.17 867.571 296.185 867.393 291.21C867.253 287.468 866.903 283.737 866.343 280.035C866.166 278.339 865.7 276.685 864.965 275.146C863.351 272.137 859.997 270.504 856.822 269.236C832.148 259.232 805.009 259.329 778.398 260.312Z" fill="#F86D70"/>
<path d="M824.08 116.15C836.863 116.15 847.225 105.807 847.225 93.0476C847.225 80.2887 836.863 69.9455 824.08 69.9455C811.297 69.9455 800.935 80.2887 800.935 93.0476C800.935 105.807 811.297 116.15 824.08 116.15Z" fill="#FBBEBE"/>
<path d="M844.254 133.739C842.537 137.5 839.835 141.261 835.814 142.217C832.116 143.104 828.198 141.326 825.474 138.677C822.75 136.028 820.969 132.59 819.079 129.296C817.702 126.889 816.168 124.461 813.837 122.946C810.65 120.883 806.538 120.937 802.781 121.544C799.024 122.151 795.294 123.236 791.478 122.989C786.725 122.672 781.881 120.303 777.397 121.882C778.85 128.372 778.328 135.507 778.161 142.158C778.19 143.185 778.044 144.21 777.731 145.188C777.339 146.101 776.811 146.949 776.164 147.703L771.858 153.242C776.477 156.691 780.47 161.193 782.085 166.722C782.995 169.87 782.715 173.212 782.683 176.489C782.58 186.111 784.674 195.696 784.012 205.297C783.237 216.542 778.737 227.169 776.417 238.198C774.43 247.667 774.056 257.402 775.309 266.995C799.433 275.328 824.29 279.594 849.792 280.991C854.298 281.238 859.163 281.276 862.861 278.691C865.935 276.542 867.657 272.862 868.244 269.155C868.83 265.448 868.427 261.677 868.018 257.948C866.909 247.865 865.802 237.783 864.697 227.7C864.067 221.962 863.437 216.192 863.846 210.438C864.153 206.14 865.036 201.923 865.913 197.716L871.296 171.895C872.065 168.226 872.84 164.53 874.364 161.107C875.612 158.314 877.34 155.735 878.718 153.016C880.361 149.757 881.493 146.265 882.077 142.663C882.311 141.618 882.296 140.532 882.034 139.494C881.458 137.731 879.698 136.673 878.056 135.808C868.045 130.557 857.317 126.801 846.213 124.66C845.459 127.824 845.605 130.79 844.254 133.739Z" fill="#E3E8F4"/>
<path d="M842.02 118.266C844.711 113.12 849.744 109.509 852.667 104.48C854.282 101.629 855.185 98.4319 855.299 95.1586C855.414 91.8853 854.736 88.6327 853.323 85.6764C852.295 83.5811 850.901 81.6577 850.094 79.4657C849.195 76.9729 849.109 74.2275 848.07 71.7883C846.643 68.4466 843.554 66.0397 840.19 64.6535C836.826 63.2674 833.192 62.7678 829.57 62.2842L817.341 60.6402C815.57 60.4038 813.735 60.1674 812.012 60.6402C810.29 61.113 808.686 62.5153 808.546 64.299C808.379 66.4104 810.236 68.3767 809.805 70.4505C809.649 71.1812 809.219 71.9226 809.466 72.6318C809.687 73.1056 810.068 73.4862 810.543 73.7063C813.444 75.3181 816.91 75.4632 820.054 76.5162C823.197 77.5692 826.351 80.2125 826.034 83.5005C825.861 85.2681 824.72 87.1055 825.495 88.6904C826.238 90.1572 828.187 90.4258 829.742 90.8824C834.775 92.3384 838.306 97.7862 837.574 102.971C837.348 104.583 836.766 106.124 836.648 107.742C836.255 113.404 837.149 115.021 841.783 118.315L842.02 118.266Z" fill="#3F3D56"/>
<path d="M873.459 142.755C873.484 143.827 873.288 144.893 872.883 145.887C871.204 149.46 866.064 149.234 862.657 151.259C858.415 153.785 857.479 159.42 857.091 164.331C856.65 169.892 856.348 175.533 857.489 180.986C858.631 186.439 861.376 191.758 865.962 194.955C871.543 198.828 879.133 198.963 885.506 196.604C891.879 194.245 897.202 189.684 901.82 184.698C906.201 179.97 910.125 174.7 912.478 168.699C912.892 167.624 913.258 166.485 912.924 165.411C912.424 163.799 910.664 163.068 909.232 162.187C905.889 160.173 903.661 156.659 902.504 152.946C901.346 149.234 901.153 145.285 901.115 141.39C901.072 137.344 901.061 132.923 898.477 129.801C895.894 126.68 891.416 125.804 887.336 125.836C883.998 125.836 874.762 126.153 872.485 129.06C870.617 131.478 873.594 139.295 873.459 142.755Z" fill="#BE6F72"/>
<path opacity="0.1" d="M873.459 142.755C873.484 143.827 873.288 144.893 872.883 145.887C871.204 149.46 866.064 149.234 862.657 151.259C858.415 153.785 857.479 159.42 857.091 164.331C856.65 169.892 856.348 175.533 857.489 180.986C858.631 186.439 861.376 191.758 865.962 194.955C871.543 198.828 879.133 198.963 885.506 196.604C891.879 194.245 897.202 189.684 901.82 184.698C906.201 179.97 910.125 174.7 912.478 168.699C912.892 167.624 913.258 166.485 912.924 165.411C912.424 163.799 910.664 163.068 909.232 162.187C905.889 160.173 903.661 156.659 902.504 152.946C901.346 149.234 901.153 145.285 901.115 141.39C901.072 137.344 901.061 132.923 898.477 129.801C895.894 126.68 891.416 125.804 887.336 125.836C883.998 125.836 874.762 126.153 872.485 129.06C870.617 131.478 873.594 139.295 873.459 142.755Z" fill="black"/>
<path d="M844.76 286.836C844.926 287.655 845.313 288.413 845.879 289.028C846.411 289.447 847.031 289.739 847.693 289.883C865.359 295.056 884.23 292.993 902.52 290.882C900.017 283.274 897.498 275.581 896.803 267.603C896.228 261.021 896.873 254.171 894.537 247.998C893.848 246.171 853.695 254.579 849.733 255.262C847.704 255.611 845.368 255.493 843.931 257.099C842.198 259.044 842.052 263.675 841.869 266.098C841.352 273.099 842.8 280.147 844.76 286.836Z" fill="#BE6F72"/>
<path d="M884.983 372.121C881.754 373.614 878.422 375.006 874.972 376.252C873.106 376.929 871.2 377.563 869.256 378.154C866.069 379.121 862.797 379.965 859.379 380.658C857.43 375.726 855.48 370.792 853.528 365.856C852.091 362.224 850.653 358.576 849.453 354.864C848.618 352.329 847.932 349.747 847.397 347.133C845.635 338.245 846.093 329.062 848.732 320.393C856.192 321.796 863.485 322.709 870.833 323.773C874.757 324.31 878.691 324.944 882.674 325.691C882.986 328.28 883.27 330.87 883.525 333.46C883.912 337.457 884.23 341.454 884.477 345.451C885.026 354.334 885.195 363.224 884.983 372.121Z" fill="#BE6F72"/>
<path opacity="0.1" d="M884.983 372.121C881.754 373.614 878.422 375.006 874.972 376.252C873.106 376.929 871.2 377.563 869.256 378.154C866.069 379.121 862.797 379.965 859.379 380.658C857.43 375.726 855.48 370.792 853.528 365.856C852.091 362.224 850.653 358.576 849.453 354.864C848.618 352.329 847.932 349.747 847.397 347.133C845.635 338.245 846.093 329.062 848.732 320.393C856.192 321.796 863.485 322.709 870.833 323.773C874.757 324.31 878.691 324.944 882.674 325.691C882.986 328.28 883.27 330.87 883.525 333.46C883.912 337.457 884.23 341.454 884.477 345.451C885.026 354.334 885.195 363.224 884.983 372.121Z" fill="black"/>
<path d="M926.375 348.841C926.418 351.936 925.536 355.095 924.717 358.13C924.658 358.345 924.604 358.555 924.551 358.77C922.604 358.165 920.926 356.909 919.798 355.213C919.215 354.294 918.785 353.287 918.522 352.231C916.086 353.886 913.628 355.525 911.148 357.147C903.037 362.466 894.462 367.747 884.984 372.121C881.754 373.614 878.422 375.006 874.972 376.252C874.254 373.745 873.573 371.222 872.927 368.682C872.221 366.068 871.667 363.414 871.269 360.736C870.48 354.653 871.091 348.47 873.056 342.657L873.298 341.959C874.213 339.374 875.394 336.891 876.824 334.55C878.164 332.401 880.817 332.761 883.525 333.476C884.752 333.793 885.995 334.174 887.126 334.41C894.161 335.883 901.465 334.362 908.656 334.765C912.083 334.936 915.441 335.789 918.533 337.274C921.994 339.009 924.782 341.663 925.875 345.333C926.03 345.861 926.149 346.4 926.23 346.945C926.321 347.573 926.369 348.206 926.375 348.841Z" fill="#BE6F72"/>
<path d="M796.882 101.407C785.767 90.6622 773.134 81.5556 760.21 73.0401C756.848 70.935 753.612 68.6333 750.522 66.1471C747.292 63.4608 744.477 60.3071 741.049 57.8895C737.62 55.4718 733.378 53.8117 729.261 54.6068C725.143 55.402 721.483 59.3347 722.086 63.4501C722.624 67.0712 725.886 69.5533 728.9 71.6325C734.606 75.5706 740.338 79.5194 746.544 82.6087C748.7 83.5841 750.791 84.6968 752.804 85.9397C756.669 88.54 759.484 92.3867 762.407 96.0025C773.438 109.68 786.95 121.162 802.237 129.85C802.42 129.957 808.788 116.241 808.519 114.463C807.927 110.374 799.81 104.244 796.882 101.407Z" fill="#BE6F72"/>
<path d="M891.948 275.027C883.368 275.565 875.139 278.455 866.747 280.298C858.356 282.141 849.238 282.855 841.449 279.223L846.186 311.507C846.45 313.302 846.724 315.139 846.331 316.907C845.971 318.594 845.034 320.184 845.115 321.908C845.239 324.638 847.806 326.556 850.223 327.818C857.244 331.518 865.11 333.327 873.045 333.067C872.458 335.431 871.726 337.768 871.134 340.132C875.09 344.371 881.56 344.656 887.206 345.999C891.512 347.015 895.549 348.777 899.769 350.018C904.872 351.521 910.171 352.258 915.492 352.204C919.082 352.167 922.887 351.667 925.675 349.432C929.104 346.676 930.17 341.991 930.912 337.661C931.327 335.243 931.709 332.793 931.451 330.354C931.171 327.55 930.084 324.896 929.007 322.295L921.633 304.432C920.293 301.208 918.942 297.936 917.327 294.825C912.052 284.763 903.3 274.324 891.948 275.027Z" fill="#3F3D56"/>
<path d="M898.515 163.482C899.153 161.811 900.329 160.398 901.859 159.467C903.389 158.536 905.185 158.14 906.966 158.34C909.119 158.641 911.041 159.818 912.887 160.968L923.167 167.372C924.871 168.384 926.506 169.507 928.06 170.735C935.149 176.602 937.883 186.246 938.664 195.406C939.444 204.566 938.664 213.882 940.488 222.892C936.15 226.481 931.338 229.516 927 233.1C924.728 234.975 922.43 236.861 920.708 239.273C919.34 241.169 918.366 243.34 916.94 245.183C914.604 248.095 911.215 249.975 907.504 250.416C909.856 251.78 911.175 254.429 911.81 257.067C912.445 259.705 912.618 262.44 913.323 265.077C914.292 268.661 916.299 271.933 916.961 275.586C917.424 278.106 917.22 280.69 917.387 283.247C918.226 296.48 928.631 308.047 927.958 321.285C923.047 319.504 918.401 317.066 914.146 314.038C912.23 312.668 910.378 311.185 908.565 309.707L894.855 298.613C888.186 293.24 881.453 287.75 876.151 281.002C872.824 276.768 870.112 272.083 866.774 267.86C863.437 263.638 859.33 259.802 854.233 258.029C853.485 259.151 852.155 259.931 851.407 261.053C851.275 261.23 851.17 261.426 851.095 261.634C851.004 262.134 851.066 262.651 851.273 263.116C851.874 265.289 852.235 267.522 852.349 269.773L852.688 273.813C852.815 274.884 852.815 275.966 852.688 277.037C852.177 280.491 848.969 283.172 845.508 283.71C845.007 283.817 844.488 283.801 843.995 283.661C843.032 283.339 842.499 282.323 842.208 281.356C840.847 276.768 842.935 271.927 843.102 267.151C843.125 265.939 843.084 264.727 842.978 263.519L842.655 258.754C839.528 258.104 837.73 254.751 836.901 251.673C834.662 243.361 832.407 234.76 833.704 226.25C834.049 223.972 834.651 221.662 834.242 219.384C833.704 216.337 831.508 213.866 830.351 210.997C826.583 201.643 834.587 191.489 833.844 181.448C833.532 177.23 830.851 173.566 829.237 169.655C828.401 167.375 827.318 165.194 826.007 163.149C824.36 160.801 822.137 158.921 819.979 157.03C813.313 151.192 806.99 144.974 801.043 138.408C797.988 138.092 795.123 136.782 792.888 134.68C791.467 133.337 790.299 131.564 790.261 129.613C790.224 127.663 791.666 125.616 793.62 125.514C794.761 125.455 795.827 126.019 796.941 126.266C800.429 127.029 803.939 124.466 805.494 121.248C807.05 118.03 807.05 114.328 807.023 110.761C808.727 110.459 810.481 110.6 812.115 111.172C813.749 111.743 815.208 112.725 816.351 114.022C818.757 116.633 820.323 119.889 822.218 122.887C822.989 124.219 823.979 125.412 825.146 126.417C827.735 128.469 831.465 128.856 833.726 131.252C834.872 132.477 835.507 134.099 836.557 135.41C839.506 139.101 844.905 139.553 848.937 141.981C852.968 144.409 855.772 148.847 860.24 150.287C861.855 150.824 863.615 150.894 865.213 151.49C868.906 152.86 871.161 156.777 871.673 160.672C872.184 164.567 871.312 168.505 870.429 172.341L868.357 181.319C867.899 183.307 867.55 185.698 869.019 187.116C869.713 187.689 870.528 188.099 871.403 188.314C875.171 189.539 879.37 190.742 882.911 189.007C884.585 188.18 885.899 186.783 887.099 185.354C892.352 179.175 895.846 171.084 898.515 163.482Z" fill="#FFE162"/>
<path d="M941 346.176C940.257 351.092 937.544 355.928 933.104 358.179C930.441 359.489 927.369 359.701 924.551 358.77C922.604 358.165 920.926 356.909 919.798 355.213C919.216 354.294 918.785 353.287 918.522 352.231C918.522 352.178 918.495 352.118 918.485 352.065C918.08 350.164 917.912 348.22 917.984 346.278C917.983 343.264 918.163 340.251 918.522 337.258C918.823 334.737 919.319 332.244 920.008 329.801C921.009 326.314 922.452 322.956 923.776 319.593C924.465 317.82 925.127 316.042 925.67 314.22C925.999 313.146 926.278 312.039 926.505 310.922L926.585 310.519C926.628 310.293 926.666 310.067 926.704 309.842C927.242 306.779 927.398 303.61 928.781 300.843C932.011 294.347 938.298 296.007 939.256 301.998C939.328 302.462 939.37 302.93 939.38 303.4C939.525 310.981 936.511 318.389 937.889 325.997C938.277 327.852 938.766 329.685 939.353 331.488C939.837 333.148 940.273 334.83 940.607 336.533C941.283 339.702 941.416 342.963 941 346.176Z" fill="#BE6F72"/>
<path d="M943.96 261.881C944.105 264.986 943.96 268.129 944.584 271.175C946.043 278.374 951.581 284.746 950.968 292.064C950.817 293.847 950.155 295.766 948.594 296.647C947.033 297.528 944.45 297.458 943.938 299.231C943.793 299.725 943.868 300.262 943.707 300.751C943.368 301.793 942.092 302.239 941.016 302.213C939.939 302.186 938.862 301.831 937.748 301.922C933.846 302.25 932.414 307.462 928.937 309.251C926.596 310.454 923.555 309.788 921.622 308.01C919.69 306.231 918.845 303.459 918.995 300.832C919.109 298.849 919.738 296.937 920.072 294.981C920.68 291.494 920.363 287.922 920.045 284.397C919.577 279.234 919.092 274.007 917.391 269.112C916.589 266.802 915.524 264.594 914.829 262.251C913.839 258.937 913.613 255.45 913.511 251.995C913.301 244.726 913.801 236.952 918.15 231.107C921.418 226.723 926.1 223.161 929.798 219.104C932.113 216.563 932.78 215.768 935.337 217.922C937.442 219.69 939.643 222.129 939.88 224.525C940.526 230.666 939.88 236.705 941.032 242.959C942.184 249.212 943.658 255.46 943.96 261.881Z" fill="#FFE162"/>
<path d="M888.132 143.55C903.293 143.55 915.583 131.282 915.583 116.15C915.583 101.017 903.293 88.7495 888.132 88.7495C872.971 88.7495 860.681 101.017 860.681 116.15C860.681 131.282 872.971 143.55 888.132 143.55Z" fill="#BE6F72"/>
<path d="M913.269 168.565C913.872 167.721 914.587 166.813 915.61 166.636C916.382 166.578 917.155 166.74 917.839 167.103L925.067 170.117C927.021 166.897 928.172 163.257 928.426 159.501C928.577 157.196 928.394 154.859 928.835 152.592C929.492 149.229 931.489 146.215 931.952 142.819C932.318 140.079 931.656 137.323 931.257 134.588C930.03 126.143 931.349 117.525 930.644 109.02C929.938 100.515 926.521 91.4036 918.92 87.4977C916.767 86.4232 914.448 85.7785 912.208 84.9296C907.219 83.0331 902.746 79.9976 897.815 77.9453C892.885 75.893 887.093 74.9528 882.314 77.3113C877.534 79.6699 874.751 86.305 877.857 90.6353C878.88 92.0591 880.376 93.0691 881.808 94.0953C884.72 96.1744 887.691 98.7425 888.364 102.256C889.569 108.58 882.981 113.539 881.124 119.722C880.439 122.137 880.378 124.686 880.947 127.131C881.749 130.795 883.708 134.255 883.638 138.005C883.584 142.115 881.119 145.839 880.656 149.927C880.489 151.426 880.591 152.946 880.403 154.44C880.071 156.41 879.487 158.33 878.664 160.151C874.358 170.896 869.993 181.754 863.593 191.414C870.445 191.53 877.219 189.95 883.31 186.815C882.434 190.956 880.758 194.887 878.374 198.388C883.85 197.755 889.118 195.92 893.8 193.015C892.664 197.076 891.018 200.977 888.902 204.625C889.085 204.314 892.471 203.551 893.095 203.196C894.378 202.468 895.411 201.368 896.055 200.042C897.885 196.776 899.027 192.838 900.722 189.442C904.347 182.164 908.542 175.183 913.269 168.565V168.565Z" fill="#3F3D56"/>
<path d="M705.083 4.13688C703.779 4.26798 702.467 4.29851 701.159 4.22821C700.936 4.20389 700.712 4.26796 700.536 4.40663C700.36 4.5453 700.245 4.74747 700.217 4.96963L697.714 23.7092C697.521 25.0695 696.963 26.3524 696.099 27.4216C695.387 28.2725 694.857 29.2605 694.543 30.3243C694.229 31.3881 694.138 32.5049 694.274 33.6054V65.4379C694.274 65.4379 694.113 69.6823 697.38 69.6823C701.29 70.1727 705.247 70.1727 709.157 69.6823C709.157 69.6823 711.773 69.188 711.773 65.2714V33.9278C711.973 32.8343 711.932 31.7105 711.653 30.6343C711.374 29.5582 710.864 28.5555 710.158 27.6956C709.323 26.6225 708.783 25.3501 708.592 24.0047L705.992 4.87292C705.963 4.65782 705.852 4.46202 705.683 4.3253C705.514 4.18859 705.3 4.12121 705.083 4.13688Z" fill="#3F3D56"/>
<path d="M705.099 34.1749H701.132C697.847 34.1749 695.184 36.8329 695.184 40.1116V55.0098C695.184 58.2885 697.847 60.9465 701.132 60.9465H705.099C708.384 60.9465 711.046 58.2885 711.046 55.0098V40.1116C711.046 36.8329 708.384 34.1749 705.099 34.1749Z" fill="#FFE162"/>
<path d="M742.222 31.537C740.919 31.6681 739.607 31.6986 738.298 31.6283C738.075 31.604 737.852 31.6681 737.675 31.8067C737.499 31.9454 737.385 32.1476 737.356 32.3697L734.854 51.1093C734.661 52.4696 734.103 53.7525 733.239 54.8217C732.526 55.6726 731.997 56.6607 731.683 57.7244C731.369 58.7882 731.277 59.905 731.414 61.0056V92.8381C731.414 92.8381 731.253 97.0824 734.52 97.0824C738.43 97.5728 742.387 97.5728 746.297 97.0824C746.297 97.0824 748.913 96.5881 748.913 92.6715V61.3279C749.112 60.2344 749.071 59.1106 748.792 58.0345C748.514 56.9583 748.004 55.9556 747.298 55.0957C746.463 54.0226 745.923 52.7503 745.732 51.4048L743.132 32.273C743.102 32.0579 742.992 31.8621 742.823 31.7254C742.654 31.5887 742.439 31.5213 742.222 31.537Z" fill="#3F3D56"/>
<path d="M742.238 61.5751H738.271C734.987 61.5751 732.324 64.233 732.324 67.5118V82.4099C732.324 85.6887 734.987 88.3466 738.271 88.3466H742.238C745.523 88.3466 748.186 85.6887 748.186 82.4099V67.5118C748.186 64.233 745.523 61.5751 742.238 61.5751Z" fill="#FFE162"/>
<g opacity="0.2">
<path opacity="0.2" d="M700.475 352.564C700.458 353.144 700.391 353.721 700.276 354.289C696.529 353.694 692.761 353.157 688.972 352.677C688.972 352.527 688.972 352.371 688.972 352.215C689.007 350.604 689.472 349.032 690.318 347.659C691.427 345.908 693.111 344.812 694.968 344.871C696.825 344.93 698.435 346.128 699.43 347.939C700.184 349.361 700.544 350.957 700.475 352.564V352.564Z" fill="#3F3D56"/>
<path opacity="0.2" d="M700.777 343.39C700.909 339.235 698.438 335.786 695.259 335.685C692.08 335.585 689.396 338.872 689.264 343.027C689.133 347.182 691.603 350.631 694.782 350.732C697.962 350.832 700.645 347.545 700.777 343.39Z" fill="#3F3D56"/>
<path opacity="0.2" d="M701.07 334.192C701.202 330.037 698.731 326.587 695.552 326.487C692.373 326.387 689.689 329.674 689.558 333.829C689.426 337.984 691.897 341.433 695.076 341.534C698.255 341.634 700.939 338.347 701.07 334.192Z" fill="#3F3D56"/>
<path opacity="0.2" d="M701.359 324.994C701.491 320.839 699.02 317.389 695.841 317.289C692.662 317.189 689.978 320.476 689.846 324.631C689.715 328.786 692.185 332.235 695.364 332.336C698.544 332.436 701.227 329.149 701.359 324.994Z" fill="#3F3D56"/>
<path opacity="0.2" d="M701.652 315.796C701.784 311.641 699.313 308.191 696.134 308.091C692.955 307.991 690.271 311.278 690.14 315.433C690.008 319.588 692.479 323.037 695.658 323.137C698.837 323.238 701.521 319.951 701.652 315.796Z" fill="#3F3D56"/>
<path opacity="0.2" d="M676.307 251.968C675.549 250.944 674.866 249.867 674.262 248.745L689.473 246.741L673.099 246.349C671.638 242.889 670.899 239.169 670.928 235.414C670.957 231.66 671.752 227.951 673.266 224.514L694.861 236.576L675.08 221.081C677.075 217.86 679.715 215.084 682.834 212.926C685.952 210.769 689.483 209.276 693.206 208.542C696.928 207.808 700.763 207.847 704.469 208.659C708.175 209.47 711.675 211.035 714.748 213.257C717.821 215.479 720.402 218.309 722.33 221.571C724.258 224.833 725.491 228.457 725.953 232.217C726.415 235.976 726.095 239.79 725.014 243.42C723.933 247.051 722.113 250.42 719.669 253.317C720.848 254.91 721.85 256.627 722.656 258.437L702.692 268L723.862 261.644C725.195 266.035 725.41 270.688 724.487 275.183C723.564 279.677 721.533 283.871 718.576 287.384C721.65 291.547 723.488 296.488 723.88 301.644C724.272 306.8 723.203 311.962 720.794 316.54C718.386 321.118 714.735 324.927 710.26 327.531C705.785 330.135 700.665 331.43 695.488 331.267C690.31 331.104 685.283 329.49 680.981 326.609C676.679 323.729 673.276 319.698 671.161 314.978C669.046 310.258 668.305 305.039 669.021 299.918C669.738 294.797 671.884 289.98 675.215 286.02C671.543 281.045 669.652 274.984 669.848 268.808C670.043 262.632 672.312 256.702 676.291 251.968H676.307Z" fill="#FFE162"/>
<path opacity="0.1" d="M725.035 270.547C724.847 276.726 722.571 282.66 718.576 287.384C721.65 291.547 723.488 296.488 723.88 301.644C724.272 306.8 723.203 311.962 720.794 316.54C718.386 321.118 714.735 324.926 710.26 327.531C705.785 330.135 700.666 331.43 695.488 331.267C690.31 331.104 685.283 329.49 680.981 326.609C676.679 323.729 673.276 319.698 671.161 314.978C669.046 310.258 668.305 305.039 669.021 299.918C669.738 294.797 671.884 289.98 675.215 286.02C671.678 281.222 725.132 267.457 725.035 270.547Z" fill="black"/>
</g>
</g>
<defs>
<clipPath id="clip0">
<rect width="611" height="383" fill="white" transform="translate(405)"/>
</clipPath>
</defs>
</svg>
