<?xml version="1.0" encoding="iso-8859-1"?>
<!-- Generator: Adobe Illustrator 19.0.0, SVG Export Plug-In . SVG Version: 6.00 Build 0)  -->
<svg version="1.1" id="Capa_1" xmlns="http://www.w3.org/2000/svg" xmlns:xlink="http://www.w3.org/1999/xlink" x="0px" y="0px"
	 viewBox="0 0 512 512" style="enable-background:new 0 0 512 512;" xml:space="preserve">
<g>
	<g>
		<path d="M357.59,282.348c-4.144,0-7.503,3.359-7.503,7.503v29.584v2.894h-83.412c2.053-10.611,1.504-28.466-11.662-54.755
			c-11.023-22.01-9.241-46.559,4.562-64.456h90.508v33.119c0,4.143,3.358,7.503,7.503,7.503c4.145,0,7.503-3.359,7.503-7.503V198.39
			v-2.775v-18.824c0-10.382-1.463-20.477-4.202-30.072c-0.003-0.01-0.005-0.021-0.009-0.032
			c-9.966-34.871-36.885-63.095-72.544-74.109v-18.59c6.815-0.094,12.331-5.659,12.331-12.496V12.505
			C300.665,5.609,295.056,0,288.161,0h-64.326c-6.896,0-12.505,5.609-12.505,12.505v28.989c0,6.836,5.517,12.402,12.331,12.496
			v18.589c-35.659,11.015-62.578,39.239-72.543,74.109c-0.003,0.01-0.005,0.021-0.009,0.032c-2.739,9.596-4.202,19.69-4.202,30.072
			v18.824v134.216v69.132c0,4.144,3.358,7.503,7.503,7.503s7.503-3.359,7.503-7.503v-61.629h32.062h62.02h94.087V474.99
			c0,12.132-9.871,22.004-22.003,22.004c-7.09,0-13.788-3.456-17.921-9.246c-1.408-1.973-3.683-3.144-6.106-3.144
			c-2.423,0-4.699,1.171-6.106,3.144c-4.133,5.79-10.831,9.246-17.921,9.246c-7.089,0-13.787-3.456-17.92-9.246
			c-1.408-1.973-3.683-3.144-6.106-3.144c-2.423,0-4.699,1.171-6.106,3.144c-4.133,5.79-10.831,9.246-17.921,9.246
			c-7.089,0-13.787-3.456-17.92-9.246c-1.408-1.973-3.683-3.144-6.106-3.144c-2.423,0-4.699,1.171-6.106,3.144
			c-4.133,5.79-10.831,9.246-17.921,9.246c-12.132,0-22.003-9.871-22.003-22.004v-21.675c0-4.144-3.358-7.503-7.503-7.503
			s-7.503,3.359-7.503,7.503v21.675c0,20.406,16.602,37.01,37.009,37.01c8.879,0,17.392-3.218,24.028-8.878
			c6.635,5.659,15.148,8.878,24.027,8.878c8.879,0,17.392-3.218,24.028-8.878c6.635,5.659,15.148,8.878,24.027,8.878
			c8.879,0,17.392-3.219,24.028-8.878c6.635,5.659,15.148,8.878,24.028,8.878c20.406,0,37.008-16.602,37.008-37.01V329.831v-10.397
			v-29.584C365.093,285.707,361.735,282.348,357.59,282.348z M285.66,15.005v23.987h-4.829h-49.666h-4.829V15.005H285.66z
			 M232.994,85.543c3.335-0.838,5.674-3.837,5.674-7.277V53.998h34.661v24.269c0,3.439,2.339,6.438,5.674,7.277
			c29.81,7.49,53.203,28.687,64.204,55.875H168.789C179.79,114.231,203.184,93.033,232.994,85.543z M161.914,176.791
			c0-6.968,0.77-13.784,2.221-20.366h183.727c1.451,6.582,2.221,13.399,2.221,20.366v11.321h-94.087h-62.02h-32.062V176.791z
			 M161.915,322.329V203.117h18.31c-6.815,13.457-13.957,37.326-4.456,69.901c0.052,0.177,0.11,0.353,0.175,0.526
			c0.039,0.104,3.944,10.601,7.185,22.828c3.507,13.236,4.351,21.243,4.309,25.956H161.915z M251.289,322.329h-48.875
			c0.123-19.083-9.769-46.925-12.316-53.772c-10.295-35.615,2.413-58.232,7.521-65.439h44.107
			c-11.493,21.17-11.802,47.87-0.131,71.174C253.755,298.574,253.677,314.789,251.289,322.329z"/>
	</g>
</g>
<g>
	<g>
		<circle cx="248.598" cy="406.468" r="7.503"/>
	</g>
</g>
<g>
	<g>
		<circle cx="260.323" cy="371.896" r="7.503"/>
	</g>
</g>
<g>
	<g>
		<circle cx="295.585" cy="391.963" r="7.503"/>
	</g>
</g>
<g>
	<g>
		<circle cx="295.585" cy="356.45" r="7.503"/>
	</g>
</g>
<g>
	<g>
		<circle cx="207.483" cy="363.953" r="7.503"/>
	</g>
</g>
<g>
	<g>
		<circle cx="207.483" cy="413.971" r="7.503"/>
	</g>
</g>
<g>
	<g>
		<circle cx="275.328" cy="428.977" r="7.503"/>
	</g>
</g>
<g>
</g>
<g>
</g>
<g>
</g>
<g>
</g>
<g>
</g>
<g>
</g>
<g>
</g>
<g>
</g>
<g>
</g>
<g>
</g>
<g>
</g>
<g>
</g>
<g>
</g>
<g>
</g>
<g>
</g>
</svg>
